<?xml version="1.0" encoding="utf-8"?>
<!-- Generator: Adobe Illustrator 26.0.1, SVG Export Plug-In . SVG Version: 6.00 Build 0)  -->
<svg version="1.1" id="Layer_1" xmlns="http://www.w3.org/2000/svg" xmlns:xlink="http://www.w3.org/1999/xlink" x="0px" y="0px"
	 viewBox="0 0 4873.6 4873.6" style="enable-background:new 0 0 4873.6 4873.6;" xml:space="preserve">
<style type="text/css">
	.st0{fill:#F85AB0;}
</style>
<g>
	<path class="st0" d="M3427.9,4875.8c-223.2-3.8-434.7-53.8-634.6-147.2c-242.1-113.1-489.9-208.7-753.3-256.1
		c-156.4-28.2-314.7-49.3-473.1-62.6c-154.8-13-310.9-17.5-466.3-16c-169,1.7-337.9,21-506.8,20.6c-138.8-0.3-277.2-17-404.4-84.9
		C42.9,4251.2-12.9,4096.6,2.5,3942.3c21.6-215.7,116.4-404.9,209.4-594.8c134.5-274.6,237.7-559.8,291-861.4
		c33-187.1,43.4-375.4,31.3-566.1c-13.4-211.9-74.9-411.9-128.8-614.6c-46.1-173.6-58.8-349.5-9.4-525.2
		c61-217,204.6-367.5,396.2-474.7c222.4-124.4,463.2-200.3,713.1-243.6c128.4-22.2,259.6-38.2,389.7-39.1
		c233.1-1.5,461.5,38.9,680.7,120.9c434.5,162.5,868.9,325.2,1301.9,491.7c193.7,74.5,361.2,187.7,473.8,368.3
		c72.9,116.9,115.9,244.9,116.8,382.7c0.8,115.3-11.6,230.7-13.5,346.1c-1.8,111.9-1.9,224.1,4.8,335.7
		c26.3,437,160.1,846.9,318.6,1250.6c57.7,147.1,90.6,301.2,89.5,459.2c-1.8,262.5-103.2,484.1-301.4,656.4
		c-250,217.3-542.7,348.7-867.2,408.6C3609.7,4859.5,3518.3,4865.2,3427.9,4875.8z"/>
</g>
</svg>
