<svg xmlns="http://www.w3.org/2000/svg" viewBox="0 0 1213.55 502.16"><defs><style>.cls-1{fill:#24a19c;}.cls-2{fill:#d96098;}</style></defs><g id="Layer_2" data-name="Layer 2"><g id="Layer_1-2" data-name="Layer 1"><path class="cls-1" d="M362,317.44q12.54,15.65,12.54,43.24A84.57,84.57,0,0,1,371.21,385a54.15,54.15,0,0,1-10.12,19.32,47.65,47.65,0,0,1-17,12.88q-10.23,4.72-23.81,4.72-13.8,0-23.81-4a40.38,40.38,0,0,1-16.33-11.61,49.82,49.82,0,0,1-9.44-18.52,90,90,0,0,1-3.1-24.51,85.37,85.37,0,0,1,3.34-24.38A53.89,53.89,0,0,1,281,319.39a47.73,47.73,0,0,1,17-12.88q10.23-4.72,24-4.72Q349.47,301.79,362,317.44Zm-48.89,14.14a15.49,15.49,0,0,0-4.26,6.68,44,44,0,0,0-2.07,10q-.57,5.76-.57,12.42a118.88,118.88,0,0,0,.69,13.12,45.12,45.12,0,0,0,2.41,10.81,16.77,16.77,0,0,0,4.95,7.25,12.28,12.28,0,0,0,8.05,2.64,9.85,9.85,0,0,0,6.91-2.53,16.28,16.28,0,0,0,4.25-6.78,43.11,43.11,0,0,0,2.07-10q.57-5.74.58-12.19a117.91,117.91,0,0,0-.69-13.23,45,45,0,0,0-2.42-10.7,16.74,16.74,0,0,0-4.95-7.25,12.28,12.28,0,0,0-8.05-2.64A10.1,10.1,0,0,0,313.12,331.58Z"/><path class="cls-1" d="M516,419.58V347.8a49.85,49.85,0,0,0-1.38-13q-1.38-4.94-6.21-4.94-5.52,0-10.35,7.93t-4.84,21v60.74H456.68V347.8a54.32,54.32,0,0,0-1.27-13q-1.28-4.94-6.33-4.94-5.74,0-10.46,8.16t-4.72,22v59.58H397.55V359.76a111.91,111.91,0,0,0-1.95-22.89A79.66,79.66,0,0,0,391.11,322a38.51,38.51,0,0,0-6.21-10.36l29.21-9.2q1.84,2.31,3.92,5.29a34.65,34.65,0,0,1,3.56,6.56,69.2,69.2,0,0,1,3.11,9.09A35.33,35.33,0,0,1,440,307.54a46.59,46.59,0,0,1,21.74-5.06q10.11,0,16.45,4a29.22,29.22,0,0,1,10.23,11.62,35.2,35.2,0,0,1,14.27-12,44.86,44.86,0,0,1,18.4-3.68q9,0,15,2.88a24,24,0,0,1,9.54,8.05,35.18,35.18,0,0,1,5.18,12.65,78.51,78.51,0,0,1,1.61,16.45v77.07Z"/><path class="cls-1" d="M575.27,337.79A55.17,55.17,0,0,1,587.69,318a53.39,53.39,0,0,1,18.52-12.08,62.56,62.56,0,0,1,23-4.14,56.1,56.1,0,0,1,18.41,2.65A33,33,0,0,1,660,311.8a29.08,29.08,0,0,1,7.13,11,39.62,39.62,0,0,1,2.31,13.69,31.41,31.41,0,0,1-4.15,15.64,41.12,41.12,0,0,1-11.84,13,68.25,68.25,0,0,1-18.64,9.32,104.58,104.58,0,0,1-24.73,4.83A22.62,22.62,0,0,0,616,390.48q4.25,4.26,13,4.26a55.13,55.13,0,0,0,10.81-1.16q5.75-1.14,10.58-2.53,5.75-1.6,11.27-3.68l6.91,23.93A100.55,100.55,0,0,1,655,416.59q-6.21,1.85-14.38,3.45a89.92,89.92,0,0,1-17.37,1.61q-14,0-24-4.14A42.45,42.45,0,0,1,582.86,406a45.22,45.22,0,0,1-9.2-17.83,87.07,87.07,0,0,1-2.88-23.12Q570.78,349.64,575.27,337.79Zm41.87-7.47a17.75,17.75,0,0,0-4.95,6.67,40.09,40.09,0,0,0-2.76,9.2,75.43,75.43,0,0,0-1.15,9.89A35.28,35.28,0,0,0,619.9,354a24.2,24.2,0,0,0,7.71-4.6,17.64,17.64,0,0,0,4.37-6,15.25,15.25,0,0,0,1.38-6,10,10,0,0,0-2.42-7,8.18,8.18,0,0,0-6.33-2.64A11.43,11.43,0,0,0,617.14,330.32Z"/><path class="cls-1" d="M809.81,419.58V347.8a49.85,49.85,0,0,0-1.38-13q-1.38-4.94-6.21-4.94-5.52,0-10.36,7.93t-4.83,21v60.74H750.45V347.8a54.39,54.39,0,0,0-1.26-13q-1.28-4.94-6.33-4.94-5.75,0-10.47,8.16t-4.71,22v59.58H691.33V359.76a111.82,111.82,0,0,0-2-22.89A79,79,0,0,0,684.89,322a38.27,38.27,0,0,0-6.22-10.36l29.22-9.2q1.85,2.31,3.91,5.29a34.07,34.07,0,0,1,3.57,6.56,69.24,69.24,0,0,1,3.1,9.09,35.38,35.38,0,0,1,15.3-15.88,46.65,46.65,0,0,1,21.74-5.06q10.13,0,16.45,4a29.17,29.17,0,0,1,10.24,11.62,35.24,35.24,0,0,1,14.26-12,44.94,44.94,0,0,1,18.41-3.68q9,0,15,2.88a24,24,0,0,1,9.55,8.05,35.18,35.18,0,0,1,5.18,12.65,78.51,78.51,0,0,1,1.61,16.45v77.07Z"/><path class="cls-1" d="M968.09,364.14a119.81,119.81,0,0,0,1.84,23,68,68,0,0,0,4.37,14.73,31.37,31.37,0,0,0,6.44,10.35l-29.22,9.2a25.09,25.09,0,0,1-4.6-5.75,49.52,49.52,0,0,1-3.57-7.25,56.18,56.18,0,0,1-2.87-10q-3.91,10.8-11.5,16.67T909,421a44,44,0,0,1-19.67-4.14,37.8,37.8,0,0,1-13.92-11.62,50.64,50.64,0,0,1-8.16-18.06,96.38,96.38,0,0,1-2.65-23.46,68.44,68.44,0,0,1,4.26-24.39,58.56,58.56,0,0,1,11.84-19.44,53.94,53.94,0,0,1,18.18-12.77,58.32,58.32,0,0,1,23.46-4.6,119.48,119.48,0,0,1,15.19,1q8,1,14.72,2.3t11.16,2.3c3,.69,4.56,1,4.72,1ZM921.5,391.28a25.92,25.92,0,0,0,5.41-8,51.75,51.75,0,0,0,3.56-11.62,73.66,73.66,0,0,0,1.27-13.92V331a24.18,24.18,0,0,0-4.49-1.27,26.07,26.07,0,0,0-5-.57,16.42,16.42,0,0,0-9.2,2.41,17.13,17.13,0,0,0-5.86,6.68,33.3,33.3,0,0,0-3.11,10.23,84,84,0,0,0-.92,12.88q0,6.45.23,12.31a45.78,45.78,0,0,0,1.5,10.47,19.38,19.38,0,0,0,3.56,7.36,7.92,7.92,0,0,0,6.44,2.76A9.37,9.37,0,0,0,921.5,391.28Z"/><path class="cls-1" d="M1076.67,421.42l-1.38-1.61a24.54,24.54,0,0,1-3.22-4.37,55.78,55.78,0,0,1-3.68-7.25,41.71,41.71,0,0,1-2.76-9.77q-3.92,10.8-11.51,16.67t-20,5.87a44,44,0,0,1-19.67-4.14,37.8,37.8,0,0,1-13.92-11.62,50.82,50.82,0,0,1-8.17-18.06,96.89,96.89,0,0,1-2.64-23.46A68.44,68.44,0,0,1,994,339.29a58.56,58.56,0,0,1,11.84-19.44A53.84,53.84,0,0,1,1024,307.08a58.32,58.32,0,0,1,23.46-4.6c1.38,0,2.88.08,4.49.23s3.26.31,5,.46V253l36.35,6V364.14a112.07,112.07,0,0,0,2,22.77,89.64,89.64,0,0,0,4.26,14.84,28.38,28.38,0,0,0,4.37,7.94l2.07,2.53Zm-30-30.14a25.92,25.92,0,0,0,5.41-8,52.27,52.27,0,0,0,3.56-11.62,73.66,73.66,0,0,0,1.27-13.92V331a24.18,24.18,0,0,0-4.49-1.27,26.07,26.07,0,0,0-5-.57,16.42,16.42,0,0,0-9.2,2.41,17.23,17.23,0,0,0-5.87,6.68,33.58,33.58,0,0,0-3.1,10.23,85.29,85.29,0,0,0-.92,12.88q0,6.45.23,12.31a45.78,45.78,0,0,0,1.5,10.47,19.38,19.38,0,0,0,3.56,7.36,7.92,7.92,0,0,0,6.44,2.76A9.35,9.35,0,0,0,1046.65,391.28Z"/><path class="cls-1" d="M1119.34,337.79A55.19,55.19,0,0,1,1131.77,318a53.39,53.39,0,0,1,18.52-12.08,62.56,62.56,0,0,1,23-4.14,56.14,56.14,0,0,1,18.41,2.65,33,33,0,0,1,12.42,7.36,29.08,29.08,0,0,1,7.13,11,39.86,39.86,0,0,1,2.3,13.69,31.39,31.39,0,0,1-4.14,15.64,41,41,0,0,1-11.85,13,68.19,68.19,0,0,1-18.63,9.32,104.68,104.68,0,0,1-24.73,4.83,22.61,22.61,0,0,0,5.86,11.16q4.26,4.26,13,4.26a55,55,0,0,0,10.81-1.16q5.76-1.14,10.59-2.53,5.74-1.6,11.27-3.68l6.9,23.93a99.89,99.89,0,0,1-13.57,5.29q-6.21,1.85-14.38,3.45a90.07,90.07,0,0,1-17.37,1.61q-14,0-24-4.14a42.45,42.45,0,0,1-16.33-11.5,45.37,45.37,0,0,1-9.21-17.83,87.08,87.08,0,0,1-2.87-23.12Q1114.86,349.64,1119.34,337.79Zm41.87-7.47a17.63,17.63,0,0,0-4.94,6.67,40.09,40.09,0,0,0-2.76,9.2,73.76,73.76,0,0,0-1.15,9.89A35.16,35.16,0,0,0,1164,354a24,24,0,0,0,7.71-4.6,17.64,17.64,0,0,0,4.37-6,15.25,15.25,0,0,0,1.38-6,10,10,0,0,0-2.41-7,8.18,8.18,0,0,0-6.33-2.64A11.48,11.48,0,0,0,1161.21,330.32Z"/><path class="cls-1" d="M89.29,418.31A41.56,41.56,0,0,1,68,413.05c-17.77-10.35-21.81-33.17-25.45-58.26-4.06-28-8.28-63.13-11.14-104.41a83.18,83.18,0,0,0,26.17,4.14c3.06,0,6.23-.22,9.4-.44l6.85-.79c1.84-.22,3.68-.45,5.62-.67Z"/><path class="cls-1" d="M149.11,352.77h25.54a18.93,18.93,0,0,1,18.9,20.06l-2.69,45.48h-58l-2.69-45.48A18.93,18.93,0,0,1,149.11,352.77Z"/><path class="cls-1" d="M198.28,277.42a11.71,11.71,0,0,1,.69,4.39l-1.28,27.06C197.28,319,189.57,327,179.41,327H145.09a18.72,18.72,0,0,1-18.68-18.11l-2.54-42.74c.2.31.51.77.9,1.33.56.81,1,1.39,1.07,1.47,1.21,1.57,7.08,11.51,8.58,13.78,3,4.51,9.35,10.08,16.15,10.08s13.09-5,19-15.35L171,275c2.76-4.93,5.42-9.64,8.58-13.34,2.76-3.36,5.52-5.26,7.47-5.26,2.76,0,5.31,4.82,6.33,6.83,1.13,2.58,2,5.27,3,8C197.13,273.32,197.59,275.42,198.28,277.42Z"/><path class="cls-1" d="M292.38,255.74q-1.42,19.93-3.25,37.65a18.09,18.09,0,0,1-6.87,12.3,55.15,55.15,0,0,0-8.15,7.94,63.41,63.41,0,0,0-11.83,22.65,95.64,95.64,0,0,0-3.71,26.94,99,99,0,0,0,3.46,27,62.71,62.71,0,0,0,5,12.43,35.8,35.8,0,0,1-11.3,10.44,41.37,41.37,0,0,1-21.25,5.27l9.42-159.44c5.61-4.34,12.15-6.47,20-6.47a53.49,53.49,0,0,1,5.83.32c3.68.35,7.36.89,11.14,1.46,3.07.57,6.25,1,9.29,1.33A13.6,13.6,0,0,0,292.38,255.74Z"/><path class="cls-2" d="M314.59,187.32c-8.06-7.81-17.54-13.58-27-18.46-4.72-2.45-11.29-3.11-16.27-.86-45.24,20.49-91,32.13-137.45,31.82-35.69-.23-70.68-4.29-101.45-27.38-2.19-1.65-5.68-2.54-8.09-1.46C13,176,4.51,185.41,1.68,197.85c-4,19.35-.85,28.87,9.78,35.91,17,11.26,35.24,16,55,13.92,9-1,18-2.09,26.9-2.76,15.45-1.17,28.71,3.53,37.18,21.1a67.7,67.7,0,0,0,7.87,12.56c9.36,11.83,17.35,10.25,25.85-4.44,3.36-5.8,6.6-11.89,10.66-16.75,9-10.75,17.35-9.55,23.22,3.05,2.47,5.33,4,11.51,6.5,16.87,4.86,10.53,10.76,10.92,17.7,1.43a38.63,38.63,0,0,0,3.91-6.44c10.81-22.39,26.36-27.91,44-25.92,6.89.73,13.71,2,20.56,2.89,11.39,1.43,27-8.79,31.59-20.59C328,214.44,325.76,198.1,314.59,187.32ZM9.65,203.43a35.85,35.85,0,0,0,.89,18.69,17.77,17.77,0,0,1-5-8c-1.77-5.9.1-11.1,1.15-14,4.88-13.61,19.82-19.1,23.06-20.18C27.13,181.13,13.3,187.6,9.65,203.43Zm299.77,4.95c-.79,13.71-12,25.25-24.62,22.49,3.49-2.44,7.2-4.47,10.5-7.36,11.07-9.74,12-23.66,1.94-32.89-3.81-3.49-8.25-5.84-13.33-9.36C299.36,179.74,310.34,192.08,309.42,208.38Z"/><path class="cls-2" d="M272.34,115.18c-16.37-18-35.41-26-58.31-18.9q-31.11,9.6-62.36,18c-21.13,5.71-41.72,6-61.7-2.73-7.52-3.3-16.12-3.93-24.33-3.84-11.17.16-22,4.32-30.81,15.58-7,9-9.73,19.22-8.4,28,1.2,7.71,5.74,12.59,13.35,18.08A100.13,100.13,0,0,0,81.72,187a359.17,359.17,0,0,0,59.1,3.87c.82,0,63.25-.09,130.79-28.74,4.47-1.87,6.85-5.2,8.31-10.88C283.85,136.09,280.39,124,272.34,115.18ZM68.55,120.13c-7.07,1-10.78,1.46-15.09,4.06a29.43,29.43,0,0,0-10.73,11.2c-6,11.1-3.39,23.66-5,23.85-.5.07-1.3-1.2-2.63-6.53a26.51,26.51,0,0,1-1.21-7.36c-.19-13,9.87-21.67,11.17-22.74,6.22-5.18,12.59-6,16.84-6.57a41.5,41.5,0,0,1,22.31,3.36A86,86,0,0,0,68.55,120.13Zm185.58,28.42c8.28-15.1,6.75-25.18-5-33.08-3.52-2.38-7.13-4.54-11.54-7.33,12.4-3.17,24,4.06,27.41,16S263.93,146.11,254.13,148.55Z"/><path class="cls-2" d="M232.53,59.8c-3.24-34.52-26-59-56.31-59.8,2.57,4.28,4.5,7,6.06,10.18,6.56,13.39,4.44,29.63-6.25,39.62-5.14,4.83-11.71,8.63-17.67,9.49-8.85,1.27-17.76-.48-26.65-.95C124.83,58,118,57,111,57.45c-10.15.7-18.88,6.69-25.54,17.83-7.23,12.15-6.66,17.79,2.41,25.18,13.07,10.66,28.08,13.23,43.56,9.84,30.48-6.66,60.84-14.94,91.26-22.27,4.79-1.14,7.58-4.86,8.57-10.15A67.61,67.61,0,0,0,232.53,59.8ZM142.24,69c-10.15,1.2-20.33,2.63-30.51,3.55-8.66.76-17.32,1-23.25,13.19a16.69,16.69,0,0,1,1.87-9.86c.38-.67,1.81-2.95,6-5.39a29.51,29.51,0,0,1,14.69-3.84c18.31-1.52,27-1.24,31.34-.83,1.49.16,4.89.51,4.95,1.24C147.35,68,143,68.87,142.24,69Zm78.36-4.41a17.46,17.46,0,0,1-8.12,8.59c8.05-24.74-4.13-39.4-11.58-56.72C205,20.87,217.77,35.24,221.11,51,222.79,58.94,221.23,63.16,220.6,64.59Z"/><path class="cls-2" d="M1043.05,271.46c-9.82,7.63-17.13,10.29-25.32,10.29a36.48,36.48,0,0,1-11.65-1.93q13.09-9.19,13.1-20.48,0-4.26-4.25-18,8.85-12.37,8.85-20.4a8.64,8.64,0,0,0-1.62-5.18,5.87,5.87,0,0,0-4.88-2.51q-6.69,0-10.84,8.43a30.68,30.68,0,0,0-3.34,13.76,53.21,53.21,0,0,0,1.81,14.18q-7.14,7.17-13.28,12.26-3.35,2.75-6.78,5.5a11.91,11.91,0,0,0-2.27,3.13A54.55,54.55,0,0,1,970,277.65a47.47,47.47,0,0,1-18.43,3.93q-14.09-.16-14.09-14.38v-3.43q33.69-21.06,33.7-37.71a11.12,11.12,0,0,0-2.44-7.19,8.77,8.77,0,0,0-7.23-3.42q-4.34,0-13.1,6.35-22.58,16.3-22.4,42.64a24,24,0,0,0,1.33,8.05c-3.87,2.89-6.58,4.78-8.1,5.66a26.91,26.91,0,0,1-13.73,3.6,14.07,14.07,0,0,1-8.85-3.43,56.08,56.08,0,0,1-6.32-7,51,51,0,0,0-8.23-8.6,75.87,75.87,0,0,0-10.65-5.61q16.62-3.18,28.72-9.86,16.62-9.12,16.62-21.49a9.28,9.28,0,0,0-3.3-7.15,11.28,11.28,0,0,0-7.81-3q-13.9,0-28.27,19.07-6.69,8.77-18.16,30.43-6.94,13-8.49,15.21a4.9,4.9,0,0,1-1.08.92c-.78-.22-1.18-.52-1.18-.92q0-2.25,4.07-12,2.72-6.53,5.42-13l9.21-23.41q7.58-16,15.14-32c2.66.1,5.35.16,8,.16,23.83,0,50.58-3.08,71.6-12.16l4.13-2.08,1.84-1,4.16-2.39a84.86,84.86,0,0,0,9.32-6.67c3.76-3.14,13.57-11.78,17-24.45,1.79-6.57.39-12.28-4.15-17a16.57,16.57,0,0,0-13.79-5.24,15.93,15.93,0,0,0-12,8.33c-.19.34-.39.69-.58,1-.58-.34-1.15-.69-1.7-1a51.13,51.13,0,0,0-5.79-3.24c-5.25-2.39-10.68-1.76-15.67,1.83a17.9,17.9,0,0,0-7.73,13.62c-.6,7.34,2.31,13.64,4.91,18.31a51.57,51.57,0,0,0,16,17.57l-.28.11c-1.23.51-2.28.94-3.35,1.33A149.67,149.67,0,0,1,906.9,196c-6.88.21-14.72,0-22.6-.39q9-20,9-32.38c0-.22-.08-.33-.23-.33a.32.32,0,0,1-.32-.25h-.18a70.22,70.22,0,0,1-12.82,6q-4.72,13.23-9.44,26c-16.77-1.3-31-3-32.66-3.11h0c-52.19-4.87-70.08-6.65-72.43-7-.24,0-1.92-.31-4.23-.55-1.2-.13-2.57-.25-4.09-.34A27.16,27.16,0,0,0,749.74,168q-7.86-8.28-21.31-8.28-19.42,0-38.93,14a106.09,106.09,0,0,0-29.77,32.85Q648,226.58,648,244.21q0,20.4,16.23,32.6,15.06,11.46,37.51,11.46a91,91,0,0,0,52.39-16.14,12.69,12.69,0,0,0,4.06,6.87q4.51,3.92,12.1,3.92,14.91,0,29.27-10.12,1,4.93,7.23,7.77A25.7,25.7,0,0,0,818,282.92a42.26,42.26,0,0,0,15.26-3.52c3.7-1.73,7.41-3.5,11.11-5.27.18,1.06.41,2.17.72,3.35,1,3.63,2.2,5.44,3.71,5.44a7.08,7.08,0,0,0,2.07-.17q2.8-1.42,8-11.12.72-1.33,6.51-13.21,9.75,12.21,16.25,17.14,10.39,8,22.4,8a33.22,33.22,0,0,0,14.55-3.18,66.67,66.67,0,0,0,9.5-6.15,13.55,13.55,0,0,0,4.86,5.4q5.69,3.58,18.06,3.59,14.84,0,30.74-10a10,10,0,0,0-.12,1.45,7.64,7.64,0,0,0,3.71,6.76,14.73,14.73,0,0,0,8.12,2.09,21.76,21.76,0,0,0,10.57-2.51,53.74,53.74,0,0,0,14.27,2.51c7.89,0,16.34-4.18,26.1-11.26ZM1012,224.89a12.38,12.38,0,0,1,1.54-5.6c1.2-2.34,2.62-3.51,4.24-3.51q2.89,1.59,2.89,6.36v.16q0,6.36-6.41,16.81a28.54,28.54,0,0,1-2.26-10Zm-71.07-72.36a14.72,14.72,0,0,1,2-9.35,13.36,13.36,0,0,1,8.51-6.41,12.17,12.17,0,0,1,2.63-.28,14.62,14.62,0,0,1,7.79,2.38,40.37,40.37,0,0,1,4.32,3.28c.73.61,1.47,1.23,2.27,1.85l1.37,1.08,1.42-4.47a11.38,11.38,0,0,1,8.3-7.68,12.37,12.37,0,0,1,11.17,3c4.5,4.18,5.7,9.32,3.67,15.74-1.78,5.6-5.18,11-10.71,17s-12.67,10.95-21.87,15.12C949.06,175.16,942.23,164.91,940.88,152.53ZM724.46,190.74c4.87-2,9-2.63,14.34-3.36a101.65,101.65,0,0,1,14.42-.92q-.74,18.61-20.28,40.27-21,23.33-41.28,23.33-7.12,0-11.33-3.64a11.37,11.37,0,0,1-1.9-2.09,15.18,15.18,0,0,1-2.3-8.15c0-8.57,18.8-24.85,38.84-39.88A42.6,42.6,0,0,1,724.46,190.74Zm82,56.48q-6.4,14.79-7,22.32-14.46,11.54-23.84,11.54-10.75,0-10.75-9.79,0-12.62,11.2-32.52,12.38-22.07,24.47-22.07,4.33,0,10.93,2.84l4.43,3.6.36,1.75Q811.35,236.1,806.46,247.22Zm10.39,33.69q-8.49,0-8.49-5.35,0-3.76,10.12-28.59,8.13-19.9,13-30.44a2.13,2.13,0,0,0,.18-.58c0-.56-.31-.84-.91-.84s-4.36,1.9-11.65,5.69q-9.39-5.69-16.08-5.69-17.79,0-34,18.52-15.36,17.69-15.35,34.44c0,.43,0,.85,0,1.26q-30.45,15.5-54.68,15.51-17.49,0-27.77-7.11-11.64-7.94-11.63-23.57,0-16.56,9.48-37.88,10-22.65,25.11-37.29,17.34-16.8,35.95-16.8,10.93,0,17.16,6.43c3.69,3.78,5.64,8.77,5.91,14.95a91.17,91.17,0,0,0-39.07,8.11l-.58.27c-3.41,1.58-14.77,6.85-23.07,13.88-10.64,9-17,21.57-17,29.35q0,8.52,6.14,13.37,5.77,4.6,15.17,4.6,23.67,0,43.45-21.57,18.87-20.73,18.88-43.14c0-.61,0-1.22,0-1.82l7.72.85c20.15,2.25,26.66,3.15,44.42,5.15,12.33,1.38,18.49,2.07,22.55,2.43,9.11.81,15.32,1.13,25.46,2.44,4.84.63,8.79,1.25,11.39,1.67q-6,16.25-12,31.75-4,9.61-8,19.32Q844,262.09,844,270.29a22.05,22.05,0,0,0,.14,2.23Q828.67,280.91,816.85,280.91Zm49.95-25A149.08,149.08,0,0,1,881,233.84q11.74-15,19.87-15,5,0,5,4.85,0,8.79-12.92,19.82-12.28,10.53-22.22,12C868.94,255.74,867.64,255.86,866.8,255.91Zm78.31-20.31q8.49-16.89,19.51-16.89a7.14,7.14,0,0,1,2.44,1,8.27,8.27,0,0,1,.54,2.26q0,9.27-10.84,22.15a83.36,83.36,0,0,1-19.51,17.39A73.39,73.39,0,0,1,945.11,235.6Zm58,43.39a33.42,33.42,0,0,1-8.63-4.85,36.16,36.16,0,0,0-8.62-4.94q2.43-2.32,10.2-8.77a67,67,0,0,0,9.58-9.2q.18,1,2.17,8.61a34.49,34.49,0,0,1,1.35,8.53Q1009.15,274,1003.1,279Z"/><polygon class="cls-1" points="640.02 473.75 1040.72 477.25 640.02 480.75 640.02 473.75 640.02 473.75"/><polygon class="cls-1" points="576.54 480.75 172.84 477.25 576.54 473.75 576.54 480.75 576.54 480.75"/><path class="cls-2" d="M600.43,485.63c.56-.06,1.09-.14,1.62-.18a6.55,6.55,0,0,1,3.3.52,4.39,4.39,0,0,1,2.47,3.08,7.62,7.62,0,0,1,.1,3,11.51,11.51,0,0,1-2.47,5.71,11.69,11.69,0,0,1-6.4,4.15,8.54,8.54,0,0,1-5.33-.32,8.68,8.68,0,0,1-4-3.13,11.4,11.4,0,0,1-2-5.32,11.52,11.52,0,0,1,.72-5.92,8.54,8.54,0,0,1,2.64-3.56,5.93,5.93,0,0,1,2.6-1.21,4.88,4.88,0,0,1,3.89.91,6.89,6.89,0,0,1,1.73,1.84l.09.14c.12-.36.22-.68.32-1a72.93,72.93,0,0,0,2-7.38,49.58,49.58,0,0,0,.79-5,41.81,41.81,0,0,0,.16-4.75,14.06,14.06,0,0,0-1.77-6.59c-.57-1.08-1.22-2.1-1.88-3.12l-.56-.88a.76.76,0,0,1-.11-.68c.13-.37.26-.73.39-1.13l.4.09a14.14,14.14,0,0,1,2.74,1.1,20.3,20.3,0,0,1,4.23,2.74,24.74,24.74,0,0,1,3.63,3.95,42.84,42.84,0,0,1,4.09,6.86,80,80,0,0,1,3.55,8.64l.14.38.23-.24a9.53,9.53,0,0,1,2.62-2,5,5,0,0,1,2.15-.55,4.47,4.47,0,0,1,2.8,1,7.62,7.62,0,0,1,2.11,2.6,11.62,11.62,0,0,1,1.37,5.45,12,12,0,0,1-1.8,6.44,8.93,8.93,0,0,1-5.27,4.09,8.66,8.66,0,0,1-5.21-.17,11.55,11.55,0,0,1-5.23-3.58,11.26,11.26,0,0,1-2.49-4.84,8.23,8.23,0,0,1,.16-4.56,5.37,5.37,0,0,1,2.31-3,5.18,5.18,0,0,1,3.33-.68,8.12,8.12,0,0,1,1.88.44,2.3,2.3,0,0,0-.07-.26c-.61-1.67-1.21-3.33-1.84-5a49.58,49.58,0,0,0-2.64-5.68,31.9,31.9,0,0,0-4.24-6.13,5.76,5.76,0,0,0-2-1.51c-1-.44-2.08-.85-3.12-1.26l-.64-.24c.09.2.15.37.22.52a18.35,18.35,0,0,1,1.54,6.05,31.37,31.37,0,0,1,.08,4.75,43.88,43.88,0,0,1-.71,5.71,73.48,73.48,0,0,1-1.83,7.48Zm23.51,4.65c.25.05.25.05.44-.11a6.27,6.27,0,0,0,1.83-2.57,7,7,0,0,0-.4-6.29,3.53,3.53,0,0,0-1.55-1.53,1.1,1.1,0,0,0-.34-.1.44.44,0,0,0-.46.21c-.09.16,0,.3.08.44a7.49,7.49,0,0,1,.42.72,10.69,10.69,0,0,1,1.06,4,9.64,9.64,0,0,1-.95,4.95A2.63,2.63,0,0,0,623.94,490.28ZM598.6,499c.08.13.2.12.32.11a5.67,5.67,0,0,0,1.63-.31,7.08,7.08,0,0,0,4.91-6.08,3.4,3.4,0,0,0-.24-1.78,2.52,2.52,0,0,0-.21-.4.53.53,0,0,0-.54-.24c-.22.07-.25.26-.26.46a6.37,6.37,0,0,1-.07.74,10.75,10.75,0,0,1-.77,2.41,9.72,9.72,0,0,1-2.28,3.25,9.25,9.25,0,0,1-2.26,1.6C598.73,498.79,598.6,498.81,598.6,499Z"/><path class="cls-2" d="M633.36,465.62l-.82-.12c-.84-.1-1.68-.22-2.53-.27a40.38,40.38,0,0,0-5.16,0c-1.07,0-2.15.17-3.22.25a20,20,0,0,1-3.19.11,6.54,6.54,0,0,1-4.57-2.29,16.34,16.34,0,0,1-1.27-1.73,18,18,0,0,0-3.09-3.55,8.63,8.63,0,0,0-2.62-1.64,4.12,4.12,0,0,0-2.75-.14l-.09,0,.29-.26a15.61,15.61,0,0,1,7.59-3.46,12.6,12.6,0,0,1,7.41,1,11.91,11.91,0,0,1,3.44,2.54c1.05,1.09,2,2.26,3,3.45.51.64,1,1.28,1.56,1.89a16.46,16.46,0,0,0,4.86,3.66l1.2.6Z"/><path class="cls-2" d="M633.35,465.63h0Z"/></g></g></svg>